DVD Description
Get ready for Barbie™ A Fairy Secret, an amazing adventure with Barbie™ where she discovers there are fairies living secretly all around us! When Ken™ is suddenly whisked away by a group of fairies, Barbie’s two fashion stylist friends reveal they are actually fairies and that Ken™ has been taken to a magical secret fairy world not far away! Barbie™ and her rival Raquelle take off with the fairy friends on an action-packed journey to bring him back. Along the way they must stick together and learn that the real magic lies not just in the fairy world itself, but in the power of friendship

.
Synopsis
BARBIE discovers that fairies are real and living around us all. She must visit them to save Ken after he was kidnapped and taken to a magical secret fairy world by a jealous fairy who wants to marry him. BARBIE and Raquelle must stick together as they learn that the real magic lies within the power of friendship.


Format : MPEG-4
Format profile : Base Media / Version 2
Codec ID : mp42
File size : 1.09 GiB
Duration : 1h 11mn
Overall bit rate : 2 164 Kbps


Video
ID : 1
Format : AVC
Format/Info : Advanced Video Codec
Format profile : Main@L4.0
Format settings, CABAC : Yes
Format settings, ReFrames : 3 frames
Codec ID : avc1
Codec ID/Info : Advanced Video Coding
Duration : 1h 11mn
Bit rate mode : Variable
Bit rate : 2 000 Kbps
Width : 720 pixels
Height : 576 pixels
Display aspect ratio : 16:9
Frame rate mode : Variable
Frame rate : 25.000 fps
Minimum frame rate : 12.500 fps
Maximum frame rate : 25.000 fps
Standard : PAL
Color space : YUV
Chroma subsampling : 4:2:0
Bit depth : 8 bits
Scan type : Progressive
Bits/(Pixel*Frame) : 0.193
Stream size : 1.00 GiB (92%)
Writing library : x264 core 65


Audio
ID : 2
Format : AAC
Format/Info : Advanced Audio Codec
Format version : Version 4
Format profile : LC
Codec ID : 40
Duration : 1h 11mn
Bit rate mode : Variable
Bit rate : 160 Kbps
Maximum bit rate : 231 Kbps
Channel(s) : 2 channels
Channel positions : Front: L R
Sampling rate : 48.0 KHz
Stream size : 82.3 MiB (7%)
Language : English
